<mxfile host="app.diagrams.net" modified="2021-03-10T03:25:43.978Z" agent="5.0 (Windows NT 10.0; Win64; x64) AppleWebKit/537.36 (KHTML, like Gecko) Chrome/88.0.4324.190 Safari/537.36" etag="gwYtHieVKYuq4qQwYDOI" version="14.4.4" type="github">
  <diagram id="GEWbKtwTwwU5BR-KHDl5" name="第 1 页">
    <mxGraphModel dx="778" dy="483" grid="1" gridSize="10" guides="1" tooltips="1" connect="1" arrows="1" fold="1" page="1" pageScale="1" pageWidth="827" pageHeight="1169" math="0" shadow="0">
      <root>
        <mxCell id="0" />
        <mxCell id="1" parent="0" />
        <mxCell id="4Ff3cxpEsu5nCAXXMV_1-10" value="" style="edgeStyle=orthogonalEdgeStyle;rounded=0;orthogonalLoop=1;jettySize=auto;html=1;" edge="1" parent="1" source="4Ff3cxpEsu5nCAXXMV_1-2" target="4Ff3cxpEsu5nCAXXMV_1-6">
          <mxGeometry relative="1" as="geometry" />
        </mxCell>
        <mxCell id="4Ff3cxpEsu5nCAXXMV_1-13" value="sub" style="edgeLabel;html=1;align=center;verticalAlign=middle;resizable=0;points=[];" vertex="1" connectable="0" parent="4Ff3cxpEsu5nCAXXMV_1-10">
          <mxGeometry x="0.25" y="3" relative="1" as="geometry">
            <mxPoint x="-3" y="-10" as="offset" />
          </mxGeometry>
        </mxCell>
        <mxCell id="4Ff3cxpEsu5nCAXXMV_1-2" value="" style="rounded=1;whiteSpace=wrap;html=1;" vertex="1" parent="1">
          <mxGeometry x="170" y="320" width="320" height="110" as="geometry" />
        </mxCell>
        <mxCell id="4Ff3cxpEsu5nCAXXMV_1-6" value="consumer" style="rounded=1;whiteSpace=wrap;html=1;fillColor=#d5e8d4;strokeColor=#82b366;" vertex="1" parent="1">
          <mxGeometry x="170" y="470" width="320" height="40" as="geometry" />
        </mxCell>
        <mxCell id="4Ff3cxpEsu5nCAXXMV_1-9" value="" style="edgeStyle=orthogonalEdgeStyle;rounded=0;orthogonalLoop=1;jettySize=auto;html=1;" edge="1" parent="1" source="4Ff3cxpEsu5nCAXXMV_1-7" target="4Ff3cxpEsu5nCAXXMV_1-2">
          <mxGeometry relative="1" as="geometry" />
        </mxCell>
        <mxCell id="4Ff3cxpEsu5nCAXXMV_1-11" value="pub" style="edgeLabel;html=1;align=center;verticalAlign=middle;resizable=0;points=[];" vertex="1" connectable="0" parent="4Ff3cxpEsu5nCAXXMV_1-9">
          <mxGeometry x="-0.2909" y="1" relative="1" as="geometry">
            <mxPoint x="-1" y="2" as="offset" />
          </mxGeometry>
        </mxCell>
        <mxCell id="4Ff3cxpEsu5nCAXXMV_1-7" value="producer" style="rounded=1;whiteSpace=wrap;html=1;fillColor=#f8cecc;strokeColor=#b85450;" vertex="1" parent="1">
          <mxGeometry x="170" y="240" width="320" height="40" as="geometry" />
        </mxCell>
        <mxCell id="4Ff3cxpEsu5nCAXXMV_1-26" style="edgeStyle=orthogonalEdgeStyle;rounded=0;orthogonalLoop=1;jettySize=auto;html=1;entryX=0;entryY=0.5;entryDx=0;entryDy=0;" edge="1" parent="1" source="4Ff3cxpEsu5nCAXXMV_1-15" target="4Ff3cxpEsu5nCAXXMV_1-18">
          <mxGeometry relative="1" as="geometry" />
        </mxCell>
        <mxCell id="4Ff3cxpEsu5nCAXXMV_1-27" value="存储" style="edgeLabel;html=1;align=center;verticalAlign=middle;resizable=0;points=[];" vertex="1" connectable="0" parent="4Ff3cxpEsu5nCAXXMV_1-26">
          <mxGeometry x="-0.1857" y="-1" relative="1" as="geometry">
            <mxPoint as="offset" />
          </mxGeometry>
        </mxCell>
        <mxCell id="4Ff3cxpEsu5nCAXXMV_1-15" value="broker" style="rounded=1;whiteSpace=wrap;html=1;fillColor=#b1ddf0;strokeColor=#10739e;" vertex="1" parent="1">
          <mxGeometry x="180" y="345" width="60" height="30" as="geometry" />
        </mxCell>
        <mxCell id="4Ff3cxpEsu5nCAXXMV_1-23" value="" style="group;fillColor=#b0e3e6;strokeColor=#0e8088;" vertex="1" connectable="0" parent="1">
          <mxGeometry x="290" y="330" width="70" height="60" as="geometry" />
        </mxCell>
        <mxCell id="4Ff3cxpEsu5nCAXXMV_1-17" value="memery" style="rounded=0;whiteSpace=wrap;html=1;fillColor=#b0e3e6;strokeColor=#0e8088;" vertex="1" parent="4Ff3cxpEsu5nCAXXMV_1-23">
          <mxGeometry width="70" height="20" as="geometry" />
        </mxCell>
        <mxCell id="4Ff3cxpEsu5nCAXXMV_1-18" value="disk" style="rounded=0;whiteSpace=wrap;html=1;fillColor=#f5f5f5;strokeColor=#666666;fontColor=#333333;" vertex="1" parent="4Ff3cxpEsu5nCAXXMV_1-23">
          <mxGeometry y="20" width="70" height="20" as="geometry" />
        </mxCell>
        <mxCell id="4Ff3cxpEsu5nCAXXMV_1-19" value="db" style="rounded=0;whiteSpace=wrap;html=1;fillColor=#b0e3e6;strokeColor=#0e8088;" vertex="1" parent="4Ff3cxpEsu5nCAXXMV_1-23">
          <mxGeometry y="40" width="70" height="20" as="geometry" />
        </mxCell>
        <mxCell id="4Ff3cxpEsu5nCAXXMV_1-24" value="" style="group" vertex="1" connectable="0" parent="1">
          <mxGeometry x="413.5" y="350" width="70" height="60" as="geometry" />
        </mxCell>
        <mxCell id="4Ff3cxpEsu5nCAXXMV_1-20" value="mongo" style="rounded=0;whiteSpace=wrap;html=1;fillColor=#f5f5f5;strokeColor=#666666;fontColor=#333333;" vertex="1" parent="4Ff3cxpEsu5nCAXXMV_1-24">
          <mxGeometry y="20" width="70" height="20" as="geometry" />
        </mxCell>
        <mxCell id="4Ff3cxpEsu5nCAXXMV_1-21" value="mysql" style="rounded=0;whiteSpace=wrap;html=1;fillColor=#b0e3e6;strokeColor=#0e8088;" vertex="1" parent="4Ff3cxpEsu5nCAXXMV_1-24">
          <mxGeometry width="70" height="20" as="geometry" />
        </mxCell>
        <mxCell id="4Ff3cxpEsu5nCAXXMV_1-22" value="redis" style="rounded=0;whiteSpace=wrap;html=1;fillColor=#f5f5f5;strokeColor=#666666;fontColor=#333333;" vertex="1" parent="4Ff3cxpEsu5nCAXXMV_1-24">
          <mxGeometry y="40" width="70" height="20" as="geometry" />
        </mxCell>
        <mxCell id="4Ff3cxpEsu5nCAXXMV_1-25" style="edgeStyle=orthogonalEdgeStyle;rounded=0;orthogonalLoop=1;jettySize=auto;html=1;" edge="1" parent="1" source="4Ff3cxpEsu5nCAXXMV_1-19" target="4Ff3cxpEsu5nCAXXMV_1-20">
          <mxGeometry relative="1" as="geometry" />
        </mxCell>
        <mxCell id="4Ff3cxpEsu5nCAXXMV_1-28" value="入库" style="edgeLabel;html=1;align=center;verticalAlign=middle;resizable=0;points=[];" vertex="1" connectable="0" parent="4Ff3cxpEsu5nCAXXMV_1-25">
          <mxGeometry x="-0.1222" y="2" relative="1" as="geometry">
            <mxPoint as="offset" />
          </mxGeometry>
        </mxCell>
      </root>
    </mxGraphModel>
  </diagram>
</mxfile>
